<svg width="31" height="31" viewBox="0 0 31 31" fill="none" xmlns="http://www.w3.org/2000/svg">
<path d="M15.7353 3.77888V6.77888C10.7766 6.77888 6.73532 10.8202 6.73532 15.7789C6.73532 20.7376 10.7766 24.7789 15.7353 24.7789C20.694 24.7789 24.7353 20.7376 24.7353 15.7789C24.7353 13.8088 24.0906 11.988 23.0107 10.5035L21.5849 11.9293C22.3107 13.0328 22.7353 14.3539 22.7353 15.7789C22.7353 19.6567 19.6132 22.7789 15.7353 22.7789C11.8575 22.7789 8.73532 19.6567 8.73532 15.7789C8.73532 11.901 11.8575 8.77888 15.7353 8.77888V11.7789L20.7353 7.77888L15.7353 3.77888Z" fill="#0C92AD"/>
</svg>
